# xmcd
#
# Track frame offsets: 
#        150
#        25230
#        42023
#        57306
#        105355
#        122055
#        135764
#        149504
#        162770
#        195752
#        208858
#        221882
#        238253
#        253598
#        265129
#        277600
#        289533
#        303649
#        318902
#        333798
#
# Disc length: 4714 seconds
#
# Revision: 2
# Processed by: cddbd v1.5.2PL0 Copyright (c) Steve Scherf et al.
# Submitted via: ExactAudioCopy v0.99pb5
#
DISCID=1a126814
DTITLE=Various Artist - Café Flamenco - Classic Sounds of Flamenco Music
DYEAR=2006
DGENRE=Flamenco
TTITLE0=Camarón De La Isla - Soleares Del Puerto
TTITLE1=Lola Flores - Nana Gitana
TTITLE2=María Del Monte - El Desamor
TTITLE3=Victor Monge Serranito - Cazorla
TTITLE4=Jesús ''Monje'' Pijote - Fatiguitas Negras
TTITLE5=Lolita Sevilla - Cantame Un Pasodoble Español
TTITLE6=Pepe Pinto - La Banderita
TTITLE7=Emilio El Moro - Guajiras Del Campo
TTITLE8=María Montoya ''La Taranta'' - Homenaje A Camaron
TTITLE9=Porrina De Badajoz - Me Tienes Que Echar De Menos
TTITLE10=La Marelu - Ha De Llegar El Momento
TTITLE11=Pepe Marchena - Dispararon Contra Cai
TTITLE12=Niña De La Puebla - Cantiñas De Puerto Real
TTITLE13=Juanito Valderrama - En El Café De Chinitas
TTITLE14=Rafael Farina - Quejio Moro
TTITLE15=Salvador Dueñas - Sevillanas Toreras
TTITLE16=Los Rumberos - Rumba Rumbera
TTITLE17=José Manuel Soto - La Pared
TTITLE18=Angelillo - Juan Simon
TTITLE19=La Marelu - Yo Le Pido A Dios El Cielo
EXTD=
EXTT0=
EXTT1=
EXTT2=
EXTT3=
EXTT4=
EXTT5=
EXTT6=
EXTT7=
EXTT8=
EXTT9=
EXTT10=
EXTT11=
EXTT12=
EXTT13=
EXTT14=
EXTT15=
EXTT16=
EXTT17=
EXTT18=
EXTT19=
PLAYORDER=
